<svg width="38" height="37" viewBox="0 0 38 37" fill="none" xmlns="http://www.w3.org/2000/svg">
<g clip-path="url(#clip0_574_851)">
<path d="M15.3702 0H15.375V0.00216195C19.53 0.00339736 23.2924 1.73203 26.015 4.52528C28.7331 7.31451 30.4169 11.1702 30.4196 15.4286H30.4218V15.4388V15.4512H30.4196C30.4181 17.1675 30.1435 18.8192 29.6386 20.3594C29.554 20.6179 29.4654 20.8663 29.3745 21.1035V21.1056C28.9391 22.236 28.3763 23.3046 27.7042 24.2889L36.4611 32.362L36.4665 32.3669L36.5138 32.412L36.5171 32.4154C37.0115 32.8982 37.2807 33.5446 37.3147 34.2006C37.3479 34.8492 37.1512 35.5126 36.7189 36.0447L36.7155 36.0497L36.6628 36.1124L36.6523 36.1232L36.6083 36.1726L36.6035 36.1791C36.1323 36.6862 35.5033 36.9617 34.8631 36.9963C34.2317 37.0306 33.5843 36.8295 33.0652 36.3854L33.0607 36.382L32.9992 36.3279L32.9905 36.3205L24.034 28.0637C23.769 28.2552 23.4986 28.4371 23.2249 28.6088C22.8537 28.842 22.4692 29.0616 22.0768 29.2621C20.0597 30.2942 17.7803 30.8749 15.3705 30.8749V30.877H15.3657V30.8749C11.2107 30.8736 7.44772 29.145 4.72509 26.3518C2.00608 23.5625 0.323177 19.7062 0.320467 15.449H0.318359V15.4388V15.4339H0.320467C0.321672 11.1721 2.00698 7.31235 4.73021 4.51972C7.44953 1.73203 11.2086 0.00494161 15.3603 0.00216195V0H15.3702ZM15.375 3.46222V3.46438H15.3702H15.3603V3.46222C12.1426 3.46438 9.22607 4.80572 7.1147 6.97045C5.00362 9.13518 3.6947 12.1298 3.69379 15.4342H3.6959V15.4391V15.4493H3.69379C3.6959 18.7497 5.00272 21.7397 7.11409 23.906C9.22457 26.0716 12.1441 27.4142 15.3654 27.4148V27.4127H15.3702H15.3801V27.4148C18.5978 27.4127 21.5131 26.0719 23.6251 23.9066C25.7362 21.7418 27.0451 18.7482 27.0457 15.4441H27.0439V15.4391V15.4289H27.0457C27.0439 12.1286 25.7359 9.13704 23.6257 6.97138C21.5152 4.80572 18.5966 3.46314 15.375 3.46222Z" fill="white"/>
</g>
<defs>
<clipPath id="clip0_574_851">
<rect width="37" height="37" fill="white" transform="translate(0.318359)"/>
</clipPath>
</defs>
</svg>
