<svg width="15" height="15" viewBox="0 0 15 15" fill="none" xmlns="http://www.w3.org/2000/svg">
<path d="M6.50285 12.2226C3.34899 12.2226 0.78125 9.65526 0.78125 6.50191C0.78125 3.34857 3.34899 0.78125 6.50285 0.78125C9.6567 0.78125 12.2244 3.34857 12.2244 6.50191C12.2244 9.65526 9.6567 12.2226 6.50285 12.2226ZM6.50285 1.61842C3.80672 1.61842 1.61856 3.81181 1.61856 6.50191C1.61856 9.19202 3.80672 11.3854 6.50285 11.3854C9.19897 11.3854 11.3871 9.19202 11.3871 6.50191C11.3871 3.81181 9.19897 1.61842 6.50285 1.61842ZM12.364 12.7812C12.2579 12.7812 12.1519 12.7422 12.0681 12.6585L10.9517 11.5422C10.8739 11.4635 10.8302 11.3572 10.8302 11.2464C10.8302 11.1357 10.8739 11.0294 10.9517 10.9506C11.1136 10.7888 11.3816 10.7888 11.5434 10.9506L12.6598 12.0669C12.8217 12.2287 12.8217 12.4966 12.6598 12.6585C12.5761 12.7422 12.4701 12.7812 12.364 12.7812V12.7812Z" fill="black" fill-opacity="0.4"/>
</svg>
